<?xml version="1.0" encoding="UTF-8" standalone="no"?>
<!-- Created with Inkscape (http://www.inkscape.org/) -->

<svg
   width="678.12158mm"
   height="423.33331mm"
   viewBox="0 0 678.12158 423.33331"
   version="1.1"
   id="svg1812"
   inkscape:version="1.1 (c68e22c387, 2021-05-23)"
   sodipodi:docname="menu.svg"
   xmlns:inkscape="http://www.inkscape.org/namespaces/inkscape"
   xmlns:sodipodi="http://sodipodi.sourceforge.net/DTD/sodipodi-0.dtd"
   xmlns="http://www.w3.org/2000/svg"
   xmlns:svg="http://www.w3.org/2000/svg">
  <sodipodi:namedview
     id="namedview1814"
     pagecolor="#ffffff"
     bordercolor="#666666"
     borderopacity="1.0"
     inkscape:pageshadow="2"
     inkscape:pageopacity="0.0"
     inkscape:pagecheckerboard="0"
     inkscape:document-units="mm"
     showgrid="false"
     inkscape:zoom="0.27149905"
     inkscape:cx="1753.229"
     inkscape:cy="1313.0801"
     inkscape:window-width="1920"
     inkscape:window-height="1051"
     inkscape:window-x="-9"
     inkscape:window-y="-9"
     inkscape:window-maximized="1"
     inkscape:current-layer="layer2" />
  <defs
     id="defs1809">
    <inkscape:path-effect
       effect="spiro"
       id="path-effect13787"
       is_visible="true"
       lpeversion="1" />
    <inkscape:path-effect
       effect="spiro"
       id="path-effect13783"
       is_visible="true"
       lpeversion="1" />
    <inkscape:path-effect
       effect="spiro"
       id="path-effect13779"
       is_visible="true"
       lpeversion="1" />
    <inkscape:path-effect
       effect="spiro"
       id="path-effect13775"
       is_visible="true"
       lpeversion="1" />
    <inkscape:path-effect
       effect="spiro"
       id="path-effect13771"
       is_visible="true"
       lpeversion="1" />
    <inkscape:path-effect
       effect="spiro"
       id="path-effect13767"
       is_visible="true"
       lpeversion="1" />
    <inkscape:path-effect
       effect="spiro"
       id="path-effect13763"
       is_visible="true"
       lpeversion="1" />
    <inkscape:path-effect
       effect="spiro"
       id="path-effect13755"
       is_visible="true"
       lpeversion="1" />
  </defs>
  <g
     inkscape:label="Слой 1"
     inkscape:groupmode="layer"
     id="layer1"
     transform="translate(-443.4101,45.841343)" />
  <g
     inkscape:groupmode="layer"
     id="layer2"
     inkscape:label="ФОН"
     transform="translate(-443.4101,45.841343)">
    <rect
       style="fill:#89b5f4;fill-opacity:1;stroke:none;stroke-width:0.337;stroke-linecap:round;stroke-linejoin:round"
       id="rect1945"
       width="677.33331"
       height="423.33331"
       x="444.19839"
       y="-45.841343" />
    <path
       style="fill:#1b180b;fill-opacity:1;stroke:#000000;stroke-width:0.298959px;stroke-linecap:butt;stroke-linejoin:miter;stroke-opacity:1"
       d="m 1071.7886,196.06098 v -32.20112 l 11.8189,-24.25023 v 56.45135 l 10.675,-1.59018 -1.1438,-25.44287 -0.3812,-33.39375 3.8126,-27.03304 h 6.0999 l 1.5251,63.20961 16.3939,-0.39755 0.3812,31.00849 -49.9441,-1.98773 z"
       id="path19241" />
  </g>
  <g
     inkscape:groupmode="layer"
     id="layer3"
     inkscape:label="земля"
     transform="translate(-443.4101,45.841343)">
    <path
       style="fill:#759918;fill-opacity:1;stroke:none;stroke-width:0.264583px;stroke-linecap:butt;stroke-linejoin:miter;stroke-opacity:1"
       d="m 444.20794,160.04234 c 49.15572,-10.10647 99.25868,-20.38546 148.41387,-30.49246 49.15517,-10.10699 106.58031,-0.91853 159.87006,-1.37819 53.28976,-0.45966 121.281,26.64528 181.92112,39.96752 60.64009,13.32224 79.93531,8.2694 119.90251,12.40371 39.9673,4.13431 67.2042,7.78188 67.2042,7.78188 v 23.42924 l 0.012,165.73792 H 444.1984 Z"
       id="path7211"
       sodipodi:nodetypes="cssssccccc" />
    <path
       style="fill:#353535;fill-opacity:0.845455;stroke:none;stroke-width:0.264583px;stroke-linecap:butt;stroke-linejoin:miter;stroke-opacity:1"
       d="M 496.83759,330.07657 618.80741,338.3457 763.5174,310.78191 864.12527,287.35266 958.5313,240.4942 865.50348,290.79814 615.36193,344.54756 Z"
       id="path10426" />
    <path
       style="fill:#000000;fill-opacity:0.209091;stroke:none;stroke-width:0.264583px;stroke-linecap:butt;stroke-linejoin:miter;stroke-opacity:1"
       d="m 792.74829,133.9412 94.80623,56.24905 49.40708,11.90211 50.25496,19.30901 15.76134,-28.11019 47.882,-12.21202 -39.3002,-2.25333 -33.13393,-3.16722 -39.46837,-6.0908 -42.39194,-10.47617 z"
       id="path10428"
       sodipodi:nodetypes="ccccccccccc" />
    <path
       style="fill:#000000;fill-opacity:0.354545;stroke:none;stroke-width:0.264583px;stroke-linecap:butt;stroke-linejoin:miter;stroke-opacity:1"
       d="m 770.85139,237.78475 -157.87349,9.74528 -144.23009,7.79622 -24.3632,3.89811 -0.97451,44.82827 0.7883,73.43933 h 677.3333 l -1.7994,-96.828 -212.44704,4.87265 z"
       id="path10790" />
    <path
       style="fill:#404040;fill-opacity:0.839394;stroke:none;stroke-width:0.264583px;stroke-linecap:butt;stroke-linejoin:miter;stroke-opacity:1"
       d="m 539.56148,280.46172 276.32715,-19.29467 82.00231,-20.67285 50.30393,-13.78191 -119.90255,40.65663 -59.26217,6.89094 -234.98142,17.22739 -66.15314,-5.51278 z"
       id="path10424" />
    <path
       style="fill:#fffefe;fill-opacity:0.7;stroke:none;stroke-width:0.264583px;stroke-linecap:butt;stroke-linejoin:miter;stroke-opacity:1"
       d="m 520.9559,-0.68909511 c -5.63483,0.45635075 -11.53921,0.23231854 -16.62782,2.69517301 -2.54431,1.2314272 -4.81459,3.1645274 -6.07773,5.6932396 -0.63157,1.2643562 -1.00279,2.6644445 -1.02671,4.0775625 -0.0239,1.413118 0.3046,2.837493 0.99214,4.072308 1.12063,2.012656 3.10664,3.40521 5.18262,4.403668 2.07598,0.998457 4.29591,1.671289 6.37574,2.661694 2.07983,0.990405 4.07467,2.365649 5.21863,4.365142 0.57198,0.999746 0.91317,2.142635 0.8986,3.294346 -0.0146,1.151711 -0.39739,2.308908 -1.1373,3.191624 -0.55881,0.66666 -1.30442,1.162944 -2.10922,1.493094 -0.8048,0.330151 -1.66866,0.49943 -2.53521,0.575468 -1.73311,0.152075 -3.4777,-0.06206 -5.21667,-0.0093 -0.86949,0.0264 -1.74133,0.120514 -2.57854,0.356682 -0.83722,0.236168 -1.64101,0.61851 -2.3054,1.18001 -0.66439,0.561501 -1.18423,1.308708 -1.4081,2.14929 -0.22388,0.840582 -0.13632,1.773616 0.30393,2.523866 0.38802,0.66123 1.02439,1.151053 1.7201,1.473196 0.6957,0.322144 1.45257,0.488881 2.20832,0.617784 0.75576,0.128904 1.51894,0.222629 2.26253,0.409327 0.74359,0.186697 1.47482,0.472201 2.07821,0.945169 0.9895,0.775616 1.55547,2.010235 1.68851,3.260432 0.13303,1.250196 -0.13374,2.516003 -0.57639,3.692758 -0.8853,2.353509 -2.46309,4.418396 -3.17942,6.828712 -0.88407,2.974699 -0.33506,6.299494 1.27843,8.950355 1.61349,2.650861 4.23255,4.629768 7.15636,5.669852 2.9238,1.040084 6.13334,1.170265 9.18246,0.593017 3.04913,-0.577247 5.94337,-1.843396 8.56838,-3.498609 4.43964,-2.799437 8.08734,-6.660323 12.01263,-10.144484 3.92529,-3.48416 8.34557,-6.701979 13.48389,-7.771988 5.02799,-1.047033 10.26281,0.06806 15.12075,1.734588 4.85795,1.666525 9.53367,3.887603 14.51033,5.156363 2.86116,0.729431 5.81915,1.138076 8.76865,1.000971 2.9495,-0.137105 5.89374,-0.831732 8.50286,-2.214063 2.60911,-1.382332 4.87132,-3.470997 6.2821,-6.064838 1.41079,-2.593841 1.93264,-5.697667 1.25381,-8.571257 -0.67679,-2.864958 -2.50012,-5.378224 -4.78732,-7.23153 -2.2872,-1.853305 -5.01997,-3.089093 -7.82561,-3.980388 -5.61128,-1.78259 -11.62827,-2.268046 -17.01816,-4.637271 -6.91995,-3.041795 -12.14517,-8.875524 -17.22739,-14.470997 -2.91684,-3.211407 -5.87395,-6.4119945 -9.25165,-9.1345257 -3.37771,-2.7225313 -7.21367,-4.96831945 -11.4212,-6.0255665 -3.69857,-0.9293578 -7.57259,-0.9168053 -11.37189,-0.5874983 -3.7993,0.329307 -7.56715,0.96875227 -11.36825,1.27659339 z"
       id="path13753"
       inkscape:path-effect="#path-effect13755"
       inkscape:original-d="m 520.9559,-0.68909511 c -7.58031,0.22943378 -15.15981,11.02578611 -22.74012,16.53828311 -7.58031,5.512496 11.02577,11.944579 16.53829,17.916474 5.51248,5.971891 -10.56588,5.513025 -15.84921,8.269141 -5.28333,2.756115 5.51302,2.297248 8.26916,3.445476 2.75611,1.148225 -1.37793,9.188199 -2.0673,13.781902 -0.68937,4.593701 17.45734,7.810008 26.18563,11.714615 8.72826,3.90461 16.99794,-11.944051 25.49652,-17.916472 8.49857,-5.972423 19.75432,4.594233 29.63108,6.890951 9.87677,2.296719 16.53855,-10.56586 24.80742,-15.849187 8.26889,-5.283327 -19.7538,-10.56586 -29.63109,-15.849189 -9.87729,-5.283326 -11.48466,-9.647066 -17.22739,-14.470997 -5.7427,-4.8239301 -13.78162,-10.1064636 -20.67285,-15.1600922 -6.8912,-5.0536289 -15.15983,0.45966128 -22.74014,0.68909509 z" />
    <path
       style="fill:#fffefe;fill-opacity:0.7;stroke:none;stroke-width:0.264583px;stroke-linecap:butt;stroke-linejoin:miter;stroke-opacity:1"
       d="m 752.33534,-10.719804 c -7.10271,2.6966827 -14.90455,3.1052112 -22.46552,2.3620992 -7.56097,-0.7431121 -14.96148,-2.5958952 -22.36272,-4.3111552 -4.95893,-1.149246 -9.96228,-2.243245 -15.04777,-2.465738 -5.08549,-0.222494 -10.30016,0.46623 -14.86053,2.727814 -4.56037,2.261583 -8.40808,6.2225857 -9.84525,11.1058518 -0.71858,2.4416331 -0.82223,5.0744005 -0.20263,7.5430111 0.61959,2.4686106 1.97301,4.7624791 3.89863,6.4267811 2.22033,1.919017 5.11496,2.94507 8.03202,3.266402 2.91707,0.321332 5.87052,-0.0235 8.74939,-0.593269 5.75773,-1.139542 11.48044,-3.189849 17.32706,-2.673133 5.32619,0.470721 10.21987,3.035616 14.83646,5.733207 4.61658,2.697591 9.21685,5.619937 14.39939,6.935652 7.65849,1.944293 15.8924,0.134618 22.93727,-3.443457 7.04486,-3.578075 13.09159,-8.815297 18.96741,-14.0980406 2.97738,-2.6768537 5.98516,-5.44639 7.91946,-8.9519255 0.96716,-1.7527678 1.64954,-3.6790858 1.84815,-5.6711043 0.1986,-1.9920184 -0.10107,-4.0517626 -0.99686,-5.8420516 -1.3786,-2.75521 -4.10353,-4.699774 -7.07,-5.531508 -2.96647,-0.831733 -6.15067,-0.632177 -9.13619,0.128329 -5.97105,1.521014 -11.16725,5.165141 -16.92777,7.352235 z"
       id="path13761"
       inkscape:path-effect="#path-effect13763"
       inkscape:original-d="m 752.33534,-10.719804 c -11.0449,0.64942 -29.88524,-1.299106 -44.82824,-1.949056 -14.94304,-0.649949 -24.03811,16.8920777 -36.05755,25.33772 -12.01944,8.445641 22.73924,2.64e-4 34.10847,0 11.36922,-2.65e-4 19.49082,8.446171 29.23585,12.668859 9.745,4.22269 27.93671,-11.694067 41.90468,-17.5414976 13.96796,-5.8474307 5.84742,-13.6431227 8.77075,-20.4650814 2.9233,-6.821958 -22.08903,1.299635 -33.13396,1.949056 z" />
    <path
       style="fill:#fffefe;fill-opacity:0.7;stroke:none;stroke-width:0.264583px;stroke-linecap:butt;stroke-linejoin:miter;stroke-opacity:1"
       d="m 698.73634,67.242409 c -11.7567,3.075435 -23.91478,4.390899 -36.05752,4.872638 -4.72856,0.187596 -9.54044,0.263038 -14.04475,1.714119 -2.25216,0.72554 -4.40953,1.799068 -6.23247,3.307544 -1.82294,1.508476 -3.30255,3.465463 -4.08598,5.698142 -1.15732,3.298237 -0.70805,7.065098 0.95133,10.141497 1.65937,3.0764 4.45897,5.468406 7.64892,6.897398 3.18994,1.428993 6.75144,1.928863 10.24123,1.730923 3.48978,-0.19793 6.91603,-1.07526 10.19063,-2.29784 6.54922,-2.44516 12.4995,-6.245667 18.86202,-9.142099 6.36253,-2.896432 13.48787,-4.899629 20.32281,-3.43177 5.23736,1.124766 9.82347,4.175027 14.74339,6.293863 2.45996,1.059418 5.04599,1.895824 7.71585,2.109463 2.66985,0.213639 5.44002,-0.22791 7.75112,-1.581632 2.26189,-1.324892 3.99002,-3.48105 4.96474,-5.914438 0.97473,-2.433387 1.21819,-5.129195 0.88242,-7.72895 -0.45041,-3.487409 -1.93739,-6.824574 -4.17363,-9.538262 -2.23624,-2.713688 -5.20928,-4.802204 -8.49523,-6.054179 -4.96774,-1.892753 -10.48654,-1.858554 -15.72975,-0.981224 -5.24321,0.87733 -10.31208,2.559437 -15.45513,3.904807 z"
       id="path13765"
       inkscape:path-effect="#path-effect13767"
       inkscape:original-d="m 698.73634,67.242409 c -10.39524,0.974262 -24.03808,3.248689 -36.05752,4.872638 -12.01944,1.623949 -16.24187,7.1468 -24.3632,10.719805 -8.12133,3.573002 45.47822,2.599005 68.21694,3.898109 22.73871,1.299107 20.1405,4.54806 30.21036,6.821694 10.06985,2.273633 3.89837,-9.095327 5.84716,-13.643388 1.94879,-4.548058 -8.44563,-10.394696 -12.66886,-15.592441 -4.22323,-5.197747 -20.78966,1.949321 -31.18488,2.923583 z" />
    <path
       style="fill:#fffefe;fill-opacity:0.7;stroke:none;stroke-width:0.264583px;stroke-linecap:butt;stroke-linejoin:miter;stroke-opacity:1"
       d="m 512.60155,106.22352 c -1.97915,-0.0882 -3.95159,-0.39867 -5.84716,-0.97453 -4.34074,-1.31869 -8.12912,-3.96755 -11.95275,-6.40904 -3.82363,-2.441488 -7.90407,-4.76238 -12.41046,-5.285295 -3.80736,-0.441801 -7.69282,0.452328 -11.15034,2.106654 -3.45751,1.654326 -6.5186,4.042482 -9.31473,6.664091 -2.30595,2.16203 -4.48192,4.53841 -5.87944,7.37367 -1.39751,2.83527 -1.95145,6.19775 -0.94226,9.1933 0.81905,2.43116 2.62282,4.46811 4.81063,5.80784 2.1878,1.33974 4.73956,2.01447 7.29783,2.20579 5.11655,0.38266 10.1605,-1.09546 15.17831,-2.16646 8.98576,-1.91792 18.45476,-2.53336 27.28677,0 6.54325,1.87685 12.69472,5.45572 19.49056,5.84717 2.55242,0.14702 5.14212,-0.17351 7.54512,-1.04647 2.40301,-0.87297 4.61453,-2.30658 6.30971,-4.22044 1.69518,-1.91386 2.86028,-4.31262 3.2068,-6.84568 0.34652,-2.53306 -0.145,-5.19096 -1.46918,-7.37797 -1.48248,-2.44846 -3.93676,-4.21705 -6.62028,-5.21276 -2.68352,-0.99571 -5.59096,-1.26488 -8.45179,-1.17324 -5.72166,0.18329 -11.36843,1.76828 -17.08734,1.51337 z"
       id="path13769"
       inkscape:path-effect="#path-effect13771"
       inkscape:original-d="m 512.60155,106.22352 c -10.72007,-1.62448 -3.89784,-0.64942 -5.84716,-0.97453 -1.94932,-0.32511 -16.24187,-7.795959 -24.36321,-11.694335 -8.12133,-3.898374 -13.6431,5.847431 -20.46507,8.770745 -6.82196,2.92332 -4.54752,11.04492 -6.8217,16.56697 -2.27414,5.52206 18.19146,3.89838 27.28677,5.84717 9.09535,1.94879 18.19146,2.7e-4 27.28677,0 9.09535,-2.6e-4 12.99398,3.89837 19.49056,5.84717 6.49661,1.94879 10.39524,-12.99344 15.59245,-19.49056 5.19721,-6.49711 -21.43934,-3.24816 -32.15941,-4.87263 z" />
    <path
       style="fill:#fffefe;fill-opacity:0.7;stroke:none;stroke-width:0.264583px;stroke-linecap:butt;stroke-linejoin:miter;stroke-opacity:1"
       d="m 847.83908,42.879216 c 2.24346,-1.352164 4.05948,-3.316764 5.61653,-5.423199 1.55705,-2.106434 2.88277,-4.37328 4.35848,-6.537479 1.4757,-2.164199 3.12469,-4.248779 5.19935,-5.847922 2.07465,-1.599144 4.62053,-2.68983 7.23976,-2.65648 1.83808,0.0234 3.6336,0.593383 5.29548,1.379025 1.66188,0.785641 3.21121,1.785987 4.78745,2.731777 1.57625,0.945791 3.19755,1.845457 4.94858,2.404881 1.75103,0.559424 3.6534,0.764379 5.43356,0.306012 1.7302,-0.445505 3.25594,-1.491983 4.54102,-2.733208 1.28509,-1.241225 2.35751,-2.681377 3.46201,-4.085715 1.1045,-1.404338 2.25901,-2.791294 3.66942,-3.888038 1.4104,-1.096743 3.10918,-1.894359 4.89454,-1.9619 1.60525,-0.06073 3.21283,0.482494 4.50452,1.437515 1.29169,0.955021 2.27044,2.307498 2.85535,3.803629 0.58491,1.49613 0.78376,3.130995 0.66215,4.732788 -0.12161,1.601792 -0.55821,3.171503 -1.20034,4.643982 -2.05844,4.720227 -6.16269,8.317022 -10.72631,10.702614 -4.56363,2.385592 -9.60508,3.683857 -14.61141,4.889829 -10.15576,2.446415 -20.68245,4.722786 -29.23582,10.719806 -4.40617,3.089297 -8.12332,7.062624 -12.42444,10.296575 -2.15057,1.616976 -4.45755,3.052413 -6.96251,4.034608 -2.50496,0.982195 -5.21986,1.500709 -7.89982,1.26126 -2.63127,-0.235098 -5.19654,-1.211383 -7.29942,-2.810379 -2.10287,-1.598996 -3.73347,-3.818427 -4.60127,-6.313581 -0.86781,-2.495154 -0.96493,-5.257147 -0.24444,-7.798755 0.72049,-2.541608 2.25977,-4.84905 4.34891,-6.465951 1.62265,-1.255856 3.54259,-2.086157 5.51809,-2.640736 1.9755,-0.554579 4.01475,-0.843499 6.05035,-1.101322 4.07121,-0.515645 8.30552,-0.961274 11.82023,-3.079636 z"
       id="path13773"
       inkscape:path-effect="#path-effect13775"
       inkscape:original-d="m 847.83908,42.879216 c 7.79595,-2.27416 14.943,-13.643121 22.41412,-20.46508 7.47112,-6.821958 13.64366,4.548062 20.46507,6.821695 6.82144,2.273633 11.04493,-8.445643 16.56699,-12.668861 5.52204,-4.223218 4.54806,9.745541 6.82168,14.617914 2.27364,4.872376 -16.89153,10.395228 -25.33772,15.592443 -8.44616,5.197216 -19.49029,7.146801 -29.23582,10.719806 -9.74553,3.573002 -18.19093,10.395225 -27.28677,15.592443 -9.09588,5.197216 -5.19721,-15.592179 -7.79622,-23.388666 -2.59902,-7.796485 15.59269,-4.547532 23.38867,-6.821694 z" />
    <path
       style="fill:#fffefe;fill-opacity:0.7;stroke:none;stroke-width:0.264583px;stroke-linecap:butt;stroke-linejoin:miter;stroke-opacity:1"
       d="m 829.32303,89.656546 c 9.81541,4.248966 20.50766,6.195245 31.18491,6.821694 12.35294,0.724764 24.85765,-0.265618 37.03203,1.949053 6.18945,1.125937 12.19906,3.065807 18.3266,4.490697 6.12753,1.42489 12.49088,2.33423 18.70546,1.35647 4.56927,-0.7189 8.91126,-2.43316 13.25996,-4.00917 4.34871,-1.575999 8.81712,-3.038388 13.43913,-3.217423 2.311,-0.08952 4.64602,0.148649 6.85307,0.839826 2.20704,0.691176 4.28439,1.844676 5.94335,3.456077 1.65896,1.61139 2.88631,3.68988 3.36261,5.95304 0.4763,2.26316 0.17605,4.70476 -0.95344,6.72293 -1.27082,2.27069 -3.51154,3.89626 -5.95496,4.79108 -2.44342,0.89482 -5.08691,1.11277 -7.68841,1.05608 -6.59844,-0.1438 -13.02266,-1.98784 -19.42287,-3.59949 -6.4002,-1.61165 -13.00258,-3.01149 -19.55824,-2.24767 -3.7831,0.44078 -7.44059,1.59136 -11.12829,2.54371 -3.6877,0.95234 -7.49424,1.71459 -11.28586,1.3544 -4.59168,-0.43619 -8.86376,-2.4863 -12.90667,-4.70637 -4.04291,-2.22008 -8.02024,-4.66488 -12.43105,-6.01344 -5.00024,-1.52877 -10.33373,-1.57592 -15.54939,-1.20649 -5.21566,0.36943 -10.40716,1.14199 -15.63549,1.20649 -7.82718,0.0966 -15.58061,-1.39369 -23.38866,-1.94905 -3.62702,-0.25798 -7.27269,-0.31467 -10.87667,-0.79754 -3.60397,-0.48288 -7.20503,-1.41468 -10.3197,-3.291 -3.11468,-1.876316 -5.71589,-4.780133 -6.69553,-8.28186 -0.48983,-1.750864 -0.56425,-3.625915 -0.1406,-5.393956 0.42365,-1.768042 1.35334,-3.422597 2.69478,-4.649782 1.64249,-1.502593 3.83722,-2.315073 6.05092,-2.549758 2.21371,-0.234684 4.45455,0.07601 6.61794,0.600702 7.22624,1.752588 13.64126,5.81681 20.46507,8.77075 z"
       id="path13777"
       inkscape:path-effect="#path-effect13779"
       inkscape:original-d="m 829.32303,89.656546 c 6.82144,2.923318 20.79019,4.54806 31.18491,6.821694 10.39468,2.273633 24.68829,1.299633 37.03203,1.949053 12.34377,0.649422 24.6883,3.898377 37.03206,5.847167 12.34374,1.94879 27.93672,6.49712 41.90468,9.74528 13.96797,3.24816 -9.09531,3.89837 -13.64337,5.84716 -4.54808,1.94879 -25.98716,-3.89784 -38.98111,-5.84716 -12.99398,-1.94932 -14.9425,2.599 -22.41415,3.89811 -7.47162,1.2991 -16.89153,-7.14627 -25.33772,-10.71981 -8.44616,-3.57353 -20.78966,2.7e-4 -31.18488,0 -10.39524,-2.6e-4 -15.59218,-1.2991 -23.38866,-1.94905 -7.79648,-0.64995 -16.89155,-14.942495 -25.33772,-22.414138 -8.44618,-7.471643 8.44617,-1.299107 12.66886,-1.949056 4.2227,-0.649949 13.64364,5.847429 20.46507,8.77075 z" />
    <path
       style="fill:#fffefe;fill-opacity:0.7;stroke:none;stroke-width:0.264583px;stroke-linecap:butt;stroke-linejoin:miter;stroke-opacity:1"
       d="m 914.10694,-41.904689 c -2.65225,1.052049 -5.15132,2.607113 -6.98916,4.78967 -1.83784,2.182557 -2.96744,5.033744 -2.75611,7.879188 0.1848,2.488185 1.37782,4.838192 3.0653,6.676022 1.68748,1.83783 3.84647,3.193756 6.12345,4.213847 4.55395,2.040183 9.5902,2.791716 14.19991,4.702575 7.33554,3.040793 13.13224,8.7947986 19.35713,13.72504044 3.11244,2.46512086 6.39372,4.76141546 10.01139,6.39745046 3.61767,1.636035 7.60275,2.593746 11.56165,2.2916451 4.39984,-0.3357485 8.55096,-2.1977995 12.32365,-4.4864919 3.77269,-2.2886923 7.25936,-5.02161566 11.00928,-7.3474226 3.74992,-2.325807 7.85407,-4.2664225 12.24207,-4.73225 2.194,-0.2329137 4.4393,-0.087526 6.5528,0.5458229 2.1135,0.6333489 4.0914,1.7643231 5.624,3.3514819 1.7529,1.8153225 2.878,4.17523773 3.4687,6.6285986 0.5908,2.4533609 0.6698,5.0052423 0.5271,7.5246891 -0.2854,5.038894 -1.4445,10.049325 -1.0722,15.082542 0.4374,5.913335 3.0791,11.651274 7.342,15.772671 4.263,4.121398 10.1176,6.573176 16.0467,6.641467 7.251,0.08352 14.0838,-3.215928 21.233,-4.429647 3.5746,-0.60686 7.3139,-0.677365 10.7616,0.444762 1.7239,0.561064 3.3587,1.419653 4.7462,2.586474 1.3874,1.16682 2.523,2.646314 3.2148,4.321993 1.0384,2.515188 1.0412,5.314627 1.2705,8.026077 0.1146,1.355725 0.291,2.713848 0.6859,4.015857 0.3948,1.302009 1.0173,2.552229 1.9417,3.550509 0.883,0.953517 2.0265,1.655338 3.2628,2.055747 1.2363,0.40041 2.5627,0.502988 3.8526,0.344327 2.5796,-0.31732 4.9603,-1.667878 6.8286,-3.474715 3.7367,-3.613672 5.4267,-8.774496 7.4956,-13.543276 2.5718,-5.928175 5.9253,-11.578577 7.4748,-17.852074 0.7747,-3.136748 1.0808,-6.421091 0.5665,-9.610901 -0.5143,-3.18981 -1.8843,-6.284288 -4.1431,-8.594547 -1.6127,-1.649433 -3.6219,-2.856795 -5.6842,-3.890361 -2.0623,-1.033566 -4.2017,-1.912479 -6.2294,-3.0123972 -2.0277,-1.0999182 -3.9646,-2.4438834 -5.4094,-4.2422241 -1.4447,-1.7983408 -2.3627,-4.09797254 -2.1676,-6.396516 0.1402,-1.651275 0.8413,-3.2187357 1.7947,-4.5742424 0.9534,-1.3555068 2.1538,-2.5176307 3.3899,-3.6214983 1.236,-1.103867 2.5176,-2.160548 3.6728,-3.348813 1.1551,-1.188264 2.1896,-2.522327 2.8369,-4.047889 0.6997,-1.648905 0.9236,-3.48512 0.7252,-5.265292 -0.1985,-1.780172 -0.8119,-3.503901 -1.709,-5.054257 -1.7942,-3.100712 -4.67,-5.455968 -7.7869,-7.221948 -7.3545,-4.16698 -16.0876,-5.288584 -24.5346,-4.97216 -8.4471,0.316423 -16.7781,1.978394 -25.1663,3.023104 -14.8508,1.849602 -29.8639,1.762365 -44.8283,1.949056 -15.98791,0.199461 -32.17753,0.694911 -47.75185,-2.923583 -6.47744,-1.504949 -12.78814,-3.710673 -19.32444,-4.934946 -6.5363,-1.224274 -13.47525,-1.415111 -19.65667,1.036835 z"
       id="path13781"
       inkscape:path-effect="#path-effect13783"
       inkscape:original-d="m 914.10694,-41.904689 c -12.99396,-1.299636 -6.49658,8.446172 -9.74527,12.668858 -3.24869,4.22269 15.59272,10.395228 23.38866,15.592444 7.79595,5.1972161 27.28704,14.9430218 40.93017,22.414136 13.64311,7.471114 31.8348,-8.44564186 47.7518,-12.6688597 15.9171,-4.2232177 1.9494,19.4908177 2.9236,29.2358297 0.9743,9.745012 15.5928,14.943021 23.3887,22.414138 7.7959,7.471113 26.6373,1.949317 39.9556,2.923582 13.3183,0.974262 2.599,10.395225 3.8981,15.592443 1.2991,5.197216 14.2934,-9.745014 21.4396,-14.617917 7.1463,-4.872902 2.599,-24.038083 3.8982,-36.057522 1.2991,-12.0194396 -12.9935,-11.6940677 -19.4906,-17.5414983 -6.4971,-5.8474307 7.7965,-10.3946967 11.6943,-15.5924427 3.8979,-5.197745 -5.8469,-11.694068 -8.7707,-17.541497 -2.9238,-5.847432 -33.1337,-1.299107 -49.7009,-1.949056 -16.5673,-0.649949 -29.8853,1.299636 -44.8283,1.949056 -14.94301,0.649419 -31.8343,-1.948792 -47.75185,-2.923583 -15.91754,-0.974794 -25.98714,-2.598478 -38.98111,-3.898111 z" />
    <path
       style="fill:#fffefe;fill-opacity:0.7;stroke:none;stroke-width:0.264583px;stroke-linecap:butt;stroke-linejoin:miter;stroke-opacity:1"
       d="m 959.90951,137.81902 c 0.62713,-0.46665 1.1074,-1.10953 1.46786,-1.80315 0.36046,-0.69363 0.60724,-1.44009 0.83047,-2.18924 0.44646,-1.49828 0.83294,-3.07776 1.83624,-4.27675 0.55651,-0.66505 1.28334,-1.18009 2.07966,-1.52342 0.79633,-0.34332 1.66085,-0.5176 2.52735,-0.55185 1.73301,-0.0685 3.44627,0.41566 5.04552,1.08678 1.59925,0.67112 3.11242,1.52978 4.68417,2.26299 1.57175,0.73321 3.22887,1.34679 4.95796,1.48188 2.88866,0.22568 5.70005,-0.8921 8.33869,-2.08913 2.63864,-1.19703 5.31031,-2.51691 8.19959,-2.73453 2.55778,-0.19265 5.08968,0.49564 7.57178,1.14248 2.4822,0.64684 5.0457,1.26298 7.5883,0.9248 2.6597,-0.35374 5.0578,-1.71716 7.4635,-2.90514 1.2029,-0.59398 2.4302,-1.15177 3.7189,-1.52465 1.2886,-0.37289 2.6462,-0.55737 3.9777,-0.39387 1.3152,0.1615 2.5723,0.65814 3.7269,1.30826 1.1547,0.65012 2.2155,1.45276 3.26,2.26816 2.089,1.63082 4.2215,3.37065 6.795,4.00362 2.2418,0.55139 4.6247,0.19888 6.81,-0.5457 2.1853,-0.74458 4.2183,-1.86639 6.2828,-2.89977 3.8505,-1.92743 7.932,-3.58355 12.2259,-3.90571 2.147,-0.16108 4.3304,0.0194 6.3885,0.65154 2.0581,0.63216 3.9883,1.72512 5.504,3.25417 1.5766,1.59044 2.674,3.61926 3.3223,5.76281 0.6483,2.14354 0.8606,4.40198 0.8122,6.6409 -0.068,3.12832 -0.6568,6.29208 -2.123,9.05637 -1.4661,2.76429 -3.8706,5.10256 -6.8352,6.10372 -3.1498,1.06371 -6.6202,0.55978 -9.8059,-0.39109 -3.1857,-0.95086 -6.243,-2.33485 -9.4888,-3.05438 -6.7139,-1.48836 -13.7028,-0.0386 -20.368,1.65488 -6.6651,1.6935 -13.4286,3.65096 -20.2886,3.16878 -4.9617,-0.34875 -9.7348,-1.96268 -14.4539,-3.53464 -4.71901,-1.57196 -9.51934,-3.12876 -14.4881,-3.35631 -9.04522,-0.41423 -17.82132,3.59944 -26.87471,3.44548 -4.34326,-0.0739 -8.71723,-1.14784 -12.40372,-3.44548 -1.23028,-0.76679 -2.38507,-1.67094 -3.33476,-2.76622 -0.94969,-1.09529 -1.69046,-2.38874 -2.03823,-3.79608 -0.34778,-1.40734 -0.28748,-2.93103 0.28071,-4.26472 0.56818,-1.33368 1.66329,-2.45761 3.02501,-2.95488 1.1164,-0.40768 2.35078,-0.38766 3.51837,-0.16569 1.16759,0.22196 2.28795,0.6369 3.41652,1.00956 1.12857,0.37265 2.28462,0.70686 3.47202,0.75804 1.18741,0.0512 2.4215,-0.20332 3.375,-0.91282 z"
       id="path13785"
       inkscape:path-effect="#path-effect13787"
       inkscape:original-d="m 959.90951,137.81902 c 4.5937,0.22944 2.75664,-5.51249 4.13457,-8.26914 1.37792,-2.75664 12.86338,1.83785 19.29466,2.75638 6.43128,0.91853 11.02579,-3.21551 16.53828,-4.82366 5.51248,-1.60815 10.10698,1.37845 15.16008,2.06728 5.0531,0.68883 10.107,-3.21551 15.1601,-4.82366 5.0531,-1.60816 9.1882,5.05363 13.7819,7.58004 4.5937,2.52642 8.7288,-2.29672 13.0928,-3.44547 4.364,-1.14876 16.0792,2.6e-4 24.1184,0 8.0391,-2.7e-4 2.7566,8.2694 4.1345,12.40371 1.3779,4.13431 -5.9719,10.10699 -8.9582,15.16009 -2.9864,5.0531 -12.8629,-2.29672 -19.2947,-3.44547 -6.4318,-1.14876 -27.1041,3.21604 -40.6566,4.82366 -13.5525,1.60763 -19.29439,-4.5937 -28.942,-6.89095 -9.64758,-2.29725 -17.91621,2.29725 -26.87471,3.44548 -8.9585,1.14822 -8.26886,-2.29672 -12.40372,-3.44548 -4.13483,-1.14876 -1.37792,-9.18767 -2.06727,-13.7819 -0.68937,-4.59423 9.18819,0.45966 13.78191,0.68909 z" />
    <path
       style="fill:#94bd26;fill-opacity:1;stroke:none;stroke-width:0.238597px;stroke-linecap:butt;stroke-linejoin:miter;stroke-opacity:1"
       d="m 447.47592,180.34522 69.70481,-20.58103 80.27065,-13.04747 62.67975,-1.87048 60.59668,-2.36895 -123.04241,12.08132 -107.67177,18.91087 z"
       id="path16011" />
    <path
       style="fill:#94bd26;fill-opacity:1;stroke:none;stroke-width:0.238597px;stroke-linecap:butt;stroke-linejoin:miter;stroke-opacity:1"
       d="m 454.77346,219.67233 67.96022,-25.76331 79.06254,-19.04544 62.36173,-6.57757 60.24708,-6.91801 -121.78589,21.29768 -105.94528,26.95231 z"
       id="path16011-3" />
  </g>
  <g
     inkscape:groupmode="layer"
     id="layer4"
     inkscape:label="цветочки"
     transform="translate(-443.4101,45.841343)">
    <circle
       style="fill:#ffd42a;fill-opacity:1;stroke:none;stroke-width:0.337;stroke-linecap:round;stroke-linejoin:round;stroke-opacity:1"
       id="path10375"
       cx="1088.9866"
       cy="313.25284"
       r="4.1345706" />
    <ellipse
       style="fill:#ffd42a;fill-opacity:1;stroke:none;stroke-width:0.337;stroke-linecap:round;stroke-linejoin:round;stroke-opacity:1"
       id="path10377"
       cx="1041.2667"
       cy="314.63104"
       rx="3.2732019"
       ry="3.4454756" />
    <ellipse
       style="fill:#ffd42a;fill-opacity:1;stroke:none;stroke-width:0.337;stroke-linecap:round;stroke-linejoin:round;stroke-opacity:1"
       id="path10379"
       cx="994.40814"
       cy="342.5394"
       rx="2.5841067"
       ry="2.7563806" />
    <ellipse
       style="fill:#ffd42a;fill-opacity:1;stroke:none;stroke-width:0.337;stroke-linecap:round;stroke-linejoin:round;stroke-opacity:1"
       id="path10381"
       cx="956.16339"
       cy="292.92456"
       rx="2.2395592"
       ry="2.411833" />
    <ellipse
       style="fill:#ffd42a;fill-opacity:1;stroke:none;stroke-width:0.337;stroke-linecap:round;stroke-linejoin:round;stroke-opacity:1"
       id="path10383"
       cx="952.20105"
       cy="324.7952"
       rx="2.7563806"
       ry="2.5841067" />
    <ellipse
       style="fill:#ffd42a;fill-opacity:1;stroke:none;stroke-width:0.337;stroke-linecap:round;stroke-linejoin:round;stroke-opacity:1"
       id="path10385"
       cx="930.83911"
       cy="352.53128"
       rx="2.411833"
       ry="2.0672853" />
    <ellipse
       style="fill:#ffd42a;fill-opacity:1;stroke:none;stroke-width:0.337;stroke-linecap:round;stroke-linejoin:round;stroke-opacity:1"
       id="path10387"
       cx="909.30493"
       cy="298.43732"
       rx="2.5841067"
       ry="3.1009281" />
    <ellipse
       style="fill:#ffd42a;fill-opacity:1;stroke:none;stroke-width:0.337;stroke-linecap:round;stroke-linejoin:round;stroke-opacity:1"
       id="path10389"
       cx="1006.295"
       cy="283.27722"
       rx="2.7563806"
       ry="2.411833" />
  </g>
</svg>
