<?xml version="1.0" encoding="UTF-8" standalone="no"?>
<!-- Created with Inkscape (http://www.inkscape.org/) -->

<svg
   version="1.1"
   id="svg824"
   width="38.052631"
   height="38.81818"
   viewBox="0 0 38.052631 38.81818"
   sodipodi:docname="favicon.svg"
   inkscape:version="1.1.1 (3bf5ae0d25, 2021-09-20)"
   xmlns:inkscape="http://www.inkscape.org/namespaces/inkscape"
   xmlns:sodipodi="http://sodipodi.sourceforge.net/DTD/sodipodi-0.dtd"
   xmlns="http://www.w3.org/2000/svg"
   xmlns:svg="http://www.w3.org/2000/svg">
  <defs
     id="defs828" />
  <sodipodi:namedview
     id="namedview826"
     pagecolor="#ffffff"
     bordercolor="#999999"
     borderopacity="1"
     inkscape:pageshadow="0"
     inkscape:pageopacity="0"
     inkscape:pagecheckerboard="0"
     showgrid="false"
     inkscape:zoom="3.265625"
     inkscape:cx="141.32057"
     inkscape:cy="43.330144"
     inkscape:window-width="1440"
     inkscape:window-height="877"
     inkscape:window-x="-8"
     inkscape:window-y="-8"
     inkscape:window-maximized="1"
     inkscape:current-layer="g830" />
  <g
     inkscape:groupmode="layer"
     inkscape:label="Image"
     id="g830"
     transform="translate(-5.0119617,-4.7057416)">
    <path
       style="fill:#ff0000;fill-opacity:1;stroke:#000000;stroke-width:1px;stroke-linecap:butt;stroke-linejoin:miter;stroke-opacity:1"
       d="M 42.105263,5.2057416 H 39.655502 5.5119617 V 43.023923 H 42.564593 V 29.856459 H 27.559809 c -3.330719,2.461035 -1.647135,4.520925 0,6.583732 h 3.062201 c 0.616035,-1.326954 0.997515,-2.653907 0,-3.980861 2.704944,1.195651 5.409888,0.831782 8.114832,0 v 6.889952 c -7.421484,-0.507822 -14.746451,-2.656417 -22.354067,0 -2.015365,-10.166766 -6.4541517,-20.223376 0,-30.7751193 9.196291,9.7628253 17.272669,1.5275033 25.722488,0 z"
       id="path1027"
       sodipodi:nodetypes="cccccccccccccccc" />
    <path
       style="fill:#ff0000;fill-opacity:1;stroke:#000000;stroke-width:1px;stroke-linecap:butt;stroke-linejoin:miter;stroke-opacity:1"
       d="m 51.132917,42.815076 5.846319,-0.108265 C 58.279293,30.90073 60.356726,19.623265 56.762705,4.4892113 l -6.062848,0.1082651 c 3.260465,12.7391996 2.215208,25.4783996 0.43306,38.2175996 z"
       id="path855"
       sodipodi:nodetypes="ccccc" />
    <path
       style="fill:#ff0000;fill-opacity:1;stroke:#000000;stroke-width:0.985434px;stroke-linecap:butt;stroke-linejoin:miter;stroke-opacity:1"
       d="m 67.906668,4.7678987 0.320247,38.8123103 h 5.444198 L 73.457616,25.1337 82.958277,24.920445 v -5.118106 c -3.424976,2.798666 -6.437005,2.087281 -9.287164,0 l -0.320246,-9.489824 c 4.910454,2.981835 9.820908,1.048319 14.731362,-0.7463907 L 88.402476,4.6612716 C 81.900933,7.6703553 74.982871,6.9307572 67.906668,4.7678987 Z"
       id="path857"
       sodipodi:nodetypes="ccccccccccc" />
    <path
       style="fill:#ff0000;fill-opacity:1;stroke:#000000;stroke-width:1px;stroke-linecap:butt;stroke-linejoin:miter;stroke-opacity:1"
       d="M 99.635706,3.8396204 C 96.972795,17.327018 98.486445,30.46637 99.09438,43.681197 l 6.17111,0.108265 c -0.98614,-13.316614 -2.66354,-26.633228 0.21653,-39.9498416 z"
       id="path859"
       sodipodi:nodetypes="ccccc" />
    <path
       style="fill:#ff0000;fill-opacity:1;stroke:#000000;stroke-width:0.957976px;stroke-linecap:butt;stroke-linejoin:miter;stroke-opacity:1"
       d="m 126.4196,12.031884 v 0.417154 31.599352 l 7.01391,0.521441 -0.50549,-31.559583 c 2.22823,1.140576 4.38248,0.234854 6.8954,-0.332749 l 0.005,-6.9029118 C 130.22078,7.850222 124.50592,1.926012 116.10503,5.5660106 V 12.86619 c 3.43819,-1.862544 6.87638,-2.975964 10.31457,-0.834306 z"
       id="path861"
       sodipodi:nodetypes="cccccccccc" />
  </g>
</svg>
